<?xml version="1.0" encoding="utf-8"?>
<!-- Generator: Adobe Illustrator 22.0.1, SVG Export Plug-In . SVG Version: 6.00 Build 0)  -->
<svg version="1.1" id="Layer_1" xmlns="http://www.w3.org/2000/svg" xmlns:xlink="http://www.w3.org/1999/xlink" x="0px" y="0px"
	 viewBox="0 0 120 120" style="enable-background:new 0 0 120 120;" xml:space="preserve">
<style type="text/css">
	.st0{fill:#FFFFFF;}
	.st1{fill:#C21300;}
	.st2{fill:none;stroke:#C21300;stroke-width:6;stroke-linecap:round;stroke-miterlimit:10;}
</style>
<circle class="st0" cx="60" cy="60" r="54.5"/>
<g>
	<g>
		<g>
			<path class="st1" d="M59.9,0.1c-33.1,0-60,26.9-60,60s26.9,60,60,60s60-26.9,60-60S93,0.1,59.9,0.1z M59.9,110.1
				c-27.6,0-50-22.4-50-50s22.4-50,50-50s50,22.4,50,50S87.5,110.1,59.9,110.1z"/>
			<g>
				<path class="st1" d="M82.9,65.9c-3.5,2.9-8.6,4.4-15.1,4.4H55.3v21.6H42.8V31.7h25.8c6,0,10.7,1.6,14.2,4.7
					c3.5,3.1,5.3,7.9,5.3,14.4C88.2,57.9,86.4,62.9,82.9,65.9z M73.3,44.2c-1.6-1.3-3.8-2-6.7-2H55.3v17.7h11.3
					c2.9,0,5.1-0.7,6.7-2.2c1.6-1.4,2.4-3.7,2.4-6.9C75.7,47.7,74.9,45.5,73.3,44.2z"/>
			</g>
		</g>
	</g>
	<g>
		<line class="st2" x1="16.3" y1="23.2" x2="83.4" y2="83.2"/>
		<g>
			<polygon class="st1" points="100,75.7 74.9,94.3 65.9,91.8 92.1,72.9 			"/>
			<g>
				<polygon points="74.9,94.3 74.9,99.2 65.9,96.5 65.9,91.8 				"/>
				<polygon points="99.7,81.3 74.9,99.2 74.9,94.3 100,75.7 				"/>
			</g>
		</g>
	</g>
</g>
</svg>
