<?xml version="1.0" encoding="utf-8"?>
<!-- Generator: Adobe Illustrator 22.0.1, SVG Export Plug-In . SVG Version: 6.00 Build 0)  -->
<svg version="1.1" id="Layer_1" xmlns="http://www.w3.org/2000/svg" xmlns:xlink="http://www.w3.org/1999/xlink" x="0px" y="0px"
	 viewBox="0 0 120 120" style="enable-background:new 0 0 120 120;" xml:space="preserve">
<style type="text/css">
	.st0{fill:#FFFFFF;}
	.st1{fill:#009B2C;}
</style>
<circle class="st0" cx="60" cy="60" r="54.5"/>
<g>
	<g>
		<path class="st1" d="M59.6,0.1c-33.1,0-60,26.9-60,60s26.9,60,60,60s60-26.9,60-60S92.7,0.1,59.6,0.1z M59.6,110.1
			c-27.6,0-50-22.4-50-50s22.4-50,50-50s50,22.4,50,50S87.2,110.1,59.6,110.1z"/>
		<rect x="38.8" y="30.3" class="st1" width="43" height="6"/>
		<rect x="56.2" y="25.3" class="st1" width="8.3" height="6"/>
		<rect x="40.8" y="87.3" class="st1" width="39" height="6"/>
		<rect x="33.8" y="39.3" class="st1" width="53" height="6"/>
		
			<rect x="51.2" y="43.3" transform="matrix(0.9998 -1.745558e-02 1.745558e-02 0.9998 -1.1577 0.9562)" class="st1" width="6" height="47"/>
		
			<rect x="40.5" y="43.2" transform="matrix(0.9998 -1.745555e-02 1.745555e-02 0.9998 -1.1576 0.7694)" class="st1" width="6" height="47"/>
		
			<rect x="42.9" y="63.9" transform="matrix(1.745771e-02 -0.9998 0.9998 1.745771e-02 -1.6392 132.1652)" class="st1" width="47" height="6"/>
		
			<rect x="53.7" y="63.8" transform="matrix(1.745519e-02 -0.9998 0.9998 1.745519e-02 9.0461 142.8057)" class="st1" width="47" height="6"/>
	</g>
</g>
</svg>
