<?xml version="1.0" encoding="utf-8"?>
<!-- Generator: Adobe Illustrator 22.0.1, SVG Export Plug-In . SVG Version: 6.00 Build 0)  -->
<svg version="1.1" id="Layer_1" xmlns="http://www.w3.org/2000/svg" xmlns:xlink="http://www.w3.org/1999/xlink" x="0px" y="0px"
	 viewBox="0 0 120 120" style="enable-background:new 0 0 120 120;" xml:space="preserve">
<style type="text/css">
	.st0{fill:#FFFFFF;}
	.st1{fill:#00689B;}
	.st2{fill:none;stroke:#00689B;stroke-width:4;stroke-miterlimit:10;}
</style>
<circle class="st0" cx="60" cy="60" r="54.5"/>
<g>
	<g>
		<path class="st1" d="M60,0.1C26.9,0.1,0,27,0,60.1s26.9,60,60,60s60-26.9,60-60S93.1,0.1,60,0.1z M60,110.1c-27.6,0-50-22.4-50-50
			s22.4-50,50-50s50,22.4,50,50S87.6,110.1,60,110.1z"/>
		<path class="st1" d="M32.8,38.3v36c0,0,7-1.9,14.3-1.1c8.8,1,12.7,4.7,12.7,5.2c0,0.4,0-35.1,0-35.1s-4.6-4.1-12.4-5
			C37.9,37.2,32.8,38.3,32.8,38.3z"/>
		<path class="st1" d="M89.8,38.3v36c0,0-7-1.9-14.3-1.1c-8.8,1-12.7,4.7-12.7,5.2c0,0.4,0-35.1,0-35.1s4.6-4.1,12.4-5
			C84.8,37.2,89.8,38.3,89.8,38.3z"/>
		<path class="st2" d="M94.8,42.3v37.5c0,0-10-2.2-18.5-1c-10.6,1.4-14.7,6.6-14.7,6.6s-4.4-5.2-15.1-6.6c-8.5-1.1-18.7,1-18.7,1
			V42.3"/>
	</g>
</g>
</svg>
